<svg xmlns="http://www.w3.org/2000/svg" width="271" height="272" fill="none"><path stroke="#000" stroke-width="5.408" d="m122.778 85.395 41.227 68.865 40.996-68.865v91.206"/><path stroke="#000" stroke-width="5.408" d="M84.37 62.364h37.541m36.16 0h-36.16m0 0c0 65.41 17.701 208.437-43.13 117.901-28.619-42.592-.65-43.689 5.588-45.812"/><path fill="#000" d="m125.094 23.044-.852.094-.558-5.03c-.049-.448-.009-.839.121-1.171a1.69 1.69 0 0 1 .618-.792c.282-.196.627-.316 1.034-.362.385-.042.735-.01 1.051.096.316.109.574.284.775.526.201.242.321.543.361.903l-.839.093a.928.928 0 0 0-.205-.506 1.019 1.019 0 0 0-.451-.298 1.379 1.379 0 0 0-.608-.058 1.204 1.204 0 0 0-.608.224.985.985 0 0 0-.341.497 1.798 1.798 0 0 0-.056.754l.558 5.03ZM110.914 17.877l.869-.229-.714 7.508-.855.225-4.315-6.185.869-.229 3.562 5.225.053-.014.531-6.301Zm.382 2.759-3.503.921-.194-.735 3.504-.922.193.736ZM95.752 29.42l-.928.431-4.658-4.315-.075.035.294 6.343-.928.43-2.983-6.42.728-.337 2.266 4.878.063-.03-.26-5.81.702-.326 4.272 3.946.063-.03-2.266-4.877.727-.338 2.983 6.42ZM74.643 40.312l-3.863-5.933.719-.467 3.862 5.932-.718.468ZM62.8 39.792l4.52 5.447-.66.548-4.035-4.863-2.532 2.102-.486-.585 3.192-2.65ZM49.923 51.063l5.248 4.752-2.868 3.167-.564-.51 2.293-2.532-1.773-1.606-2.144 2.368-.564-.51 2.144-2.368-1.784-1.615-2.33 2.572-.563-.51 2.905-3.208ZM38.47 76.765l-.462.913-6.33-.512-.037.074 4.153 4.803-.462.913-6.315-3.201.363-.715 4.797 2.432.032-.062-3.797-4.405.35-.69 5.797.458.032-.062-4.798-2.432.363-.715 6.314 3.201ZM22.155 95.072l6.763 2.094-1.264 4.082-.727-.225 1.01-3.263-2.284-.707-.945 3.051-.727-.225.945-3.051-2.298-.712-1.027 3.315-.726-.225 1.28-4.134ZM17.505 111.509l6.996 1.084-.366 2.364c-.084.546-.247.98-.488 1.302a1.807 1.807 0 0 1-.883.661c-.35.118-.73.146-1.142.082a2.34 2.34 0 0 1-1.058-.423 1.804 1.804 0 0 1-.631-.891c-.126-.377-.147-.836-.063-1.378l.296-1.913.765.119-.292 1.885c-.057.374-.05.683.025.927.073.247.202.438.387.571.187.136.42.226.7.269.28.044.533.029.759-.043.225-.072.413-.215.563-.427.151-.212.256-.507.315-.885l.23-1.489-6.244-.967.131-.848Zm2.633 3.78-3.41 1.235.153-.984 3.405-1.207-.148.956ZM15.217 129.579l7.079.049-.006.857-6.319-.044-.023 3.291-.76-.005.029-4.148ZM22.8 146.959l-7.037.767-.093-.852 7.037-.767.093.852ZM25.084 161.004l-6.88 1.665-.195-.806 4.495-5.057-.017-.067-5.402 1.307-.202-.833 6.88-1.665.196.806-4.505 5.074.016.067 5.416-1.311.198.82ZM31.29 188.81l-.674.353-1.435-2.745.674-.352 1.435 2.744ZM40.916 210.415l5.334-4.654 1.573 1.802c.365.419.588.827.669 1.224a1.88 1.88 0 0 1-.089 1.123 2.488 2.488 0 0 1-.686.939 2.513 2.513 0 0 1-1.025.555 1.9 1.9 0 0 1-1.129-.053c-.382-.134-.755-.408-1.117-.823l-1.127-1.292.573-.5L45 210.007c.25.287.5.474.75.561.251.087.495.096.731.028.24-.069.467-.197.68-.383a1.75 1.75 0 0 0 .469-.62c.1-.225.121-.467.064-.725-.056-.261-.21-.536-.463-.826l-.991-1.135-4.761 4.154-.564-.646ZM53.224 223.8l4.573-5.404 1.826 1.545c.422.357.708.722.857 1.096.15.371.185.737.104 1.097-.082.36-.257.699-.526 1.018-.27.318-.574.546-.912.682-.339.136-.702.16-1.09.073-.387-.088-.79-.31-1.209-.664l-1.477-1.25.5-.592 1.456 1.233c.289.244.557.398.804.463.25.066.479.055.69-.033.212-.088.41-.241.594-.457.183-.216.303-.44.358-.67.056-.23.033-.465-.07-.703-.102-.24-.299-.484-.591-.731l-1.15-.973-4.082 4.824-.654-.554Zm4.599-.275-.725 3.553-.76-.643.746-3.536.738.626ZM74.264 235.245c-.386.639-.834 1.122-1.346 1.449-.511.327-1.044.495-1.6.505a2.963 2.963 0 0 1-1.608-.452c-.517-.312-.9-.715-1.151-1.21-.25-.495-.35-1.046-.301-1.651.05-.605.267-1.227.652-1.866.386-.64.834-1.123 1.346-1.45.511-.326 1.045-.495 1.6-.505.554-.01 1.09.141 1.608.452.517.312.9.715 1.151 1.211.25.495.35 1.045.301 1.65-.05.605-.267 1.227-.652 1.867Zm-.711-.428c.316-.525.496-1.021.537-1.489.044-.465-.027-.881-.213-1.246a2.141 2.141 0 0 0-.827-.878 2.161 2.161 0 0 0-1.166-.323c-.408.008-.808.139-1.201.394-.392.257-.746.648-1.062 1.173-.316.525-.496 1.02-.54 1.486-.042.467.029.883.213 1.247.186.365.463.658.83.879.368.221.755.328 1.163.321.41-.006.81-.137 1.202-.394.393-.255.748-.645 1.064-1.17ZM87.069 246.027l-2.031-.806 2.611-6.58 2.12.841c.639.254 1.133.602 1.482 1.046.35.441.55.955.597 1.542.048.584-.063 1.217-.333 1.898-.272.686-.628 1.227-1.069 1.625-.44.396-.945.634-1.518.714-.571.078-1.191-.015-1.86-.28Zm-.954-1.197 1.183.469c.544.216 1.036.29 1.477.222a2.088 2.088 0 0 0 1.156-.579c.33-.318.6-.744.813-1.28.21-.531.305-1.023.284-1.475a2.063 2.063 0 0 0-.425-1.195c-.263-.345-.651-.619-1.165-.823l-1.273-.505-2.05 5.166ZM109.114 245.947l.838.181-.993 4.581a2.467 2.467 0 0 1-.609 1.195 2.406 2.406 0 0 1-1.125.672c-.449.124-.945.128-1.488.01-.543-.118-.993-.326-1.35-.625a2.421 2.421 0 0 1-.75-1.078 2.488 2.488 0 0 1-.056-1.339l.992-4.581.838.181-.978 4.514c-.073.338-.064.655.028.95.092.294.259.546.501.756.245.209.56.355.945.438.385.084.732.081 1.042-.008.309-.09.566-.251.769-.48.205-.232.345-.516.418-.854l.978-4.513ZM128.953 251.068l-.856-.038a1.79 1.79 0 0 0-.672-1.151 1.944 1.944 0 0 0-.578-.316 2.32 2.32 0 0 0-.673-.127 2.159 2.159 0 0 0-1.178.273c-.355.201-.644.507-.868.919-.221.413-.345.925-.372 1.537-.028.613.051 1.134.234 1.564.187.431.448.762.783.994.338.232.721.357 1.15.376.234.011.461-.012.681-.066.219-.055.42-.142.603-.261a1.82 1.82 0 0 0 .772-1.09l.856.038a2.865 2.865 0 0 1-.395.955 2.653 2.653 0 0 1-1.541 1.115 3.2 3.2 0 0 1-1.012.11 2.976 2.976 0 0 1-1.59-.513 3.037 3.037 0 0 1-1.052-1.307c-.245-.555-.351-1.206-.318-1.951.033-.746.196-1.385.49-1.916a3.028 3.028 0 0 1 1.164-1.208c.483-.274 1.026-.397 1.629-.37.357.015.69.082.998.2.311.117.588.282.833.493.244.21.445.461.603.754.158.291.261.619.309.986ZM142.317 249.764l-.088-.756 5.274-.612.088.756-2.211.256.728 6.277-.851.099-.729-6.277-2.211.257ZM174.807 249.584l-2.038.788-2.552-6.603 2.128-.823c.64-.248 1.239-.327 1.797-.239a2.783 2.783 0 0 1 1.485.726c.433.397.781.936 1.045 1.62.266.688.373 1.327.32 1.919a2.807 2.807 0 0 1-.63 1.555c-.366.445-.885.798-1.555 1.057Zm-1.512-.231 1.186-.459c.546-.211.958-.491 1.235-.84.278-.35.43-.753.455-1.21.026-.457-.065-.955-.272-1.492-.207-.533-.471-.958-.794-1.276a2.071 2.071 0 0 0-1.124-.588c-.427-.075-.898-.012-1.414.187l-1.277.494 2.005 5.184ZM190.576 242.888l-3.518-6.144 3.708-2.122.378.659-2.964 1.697 1.189 2.076 2.771-1.587.378.66-2.771 1.587 1.195 2.088 3.012-1.724.378.66-3.756 2.15ZM204.946 227.471a1.085 1.085 0 0 0-.901-.329c-.352.03-.696.178-1.033.443-.246.194-.43.403-.552.628-.12.224-.177.446-.171.666.009.22.083.418.222.596a.865.865 0 0 0 .408.299c.155.048.316.063.484.046.166-.02.329-.055.488-.107.157-.053.298-.107.423-.161l.684-.293c.175-.076.378-.15.608-.223.232-.074.475-.117.729-.129.255-.016.506.024.754.119s.475.273.68.534c.236.301.371.635.405 1.001.035.365-.042.738-.23 1.117-.186.379-.493.736-.92 1.072-.399.314-.794.521-1.187.622-.391.099-.76.099-1.108 0a1.953 1.953 0 0 1-.91-.581l.695-.547c.184.196.391.314.623.355.232.037.469.015.712-.068.243-.086.475-.215.696-.389.257-.203.455-.426.595-.67.137-.246.207-.492.208-.736 0-.246-.08-.471-.24-.674a.834.834 0 0 0-.509-.329 1.458 1.458 0 0 0-.63.038c-.226.06-.458.14-.696.24l-.838.343c-.533.217-1.018.309-1.454.277-.436-.032-.801-.236-1.096-.611a1.716 1.716 0 0 1-.389-1.014 2.143 2.143 0 0 1 .257-1.082c.186-.356.456-.675.811-.954a2.86 2.86 0 0 1 1.108-.559 2.097 2.097 0 0 1 1.073 0c.339.091.623.273.853.547l-.652.513ZM214.846 216.565l5.012 4.999-.606.607-5.012-4.999.606-.607ZM225.633 207.938a2.462 2.462 0 0 0-.68-.143 1.93 1.93 0 0 0-.645.057 1.86 1.86 0 0 0-.589.272 2.274 2.274 0 0 0-.511.496 2.092 2.092 0 0 0-.44 1.105c-.038.404.049.815.26 1.233.211.418.559.814 1.045 1.187.486.374.959.607 1.418.702.46.094.882.068 1.267-.077.385-.146.711-.392.978-.74.247-.321.396-.657.448-1.007.05-.354.002-.696-.145-1.027-.147-.334-.392-.633-.736-.897l.204-.174-1.297 1.688-.603-.463 1.643-2.138.603.463c.462.356.788.763.978 1.223.191.458.249.932.171 1.422-.077.487-.287.953-.63 1.399-.382.497-.834.844-1.358 1.041a2.989 2.989 0 0 1-1.671.11c-.592-.123-1.183-.412-1.775-.867a4.738 4.738 0 0 1-1.061-1.099 3.336 3.336 0 0 1-.518-1.209 2.809 2.809 0 0 1 .022-1.221c.097-.402.284-.783.561-1.143.227-.296.484-.537.77-.724a2.789 2.789 0 0 1 1.872-.462c.327.036.646.133.958.291l-.539.702ZM234.88 190.039l6.258 3.309-.388.733-6.716.813-.033.061 4.914 2.598-.401.758-6.258-3.309.388-.734 6.735-.818.033-.061-4.926-2.604.394-.746ZM247.507 179.981l-6.695-2.299 1.387-4.041.72.247-1.11 3.23 2.263.777 1.037-3.021.719.247-1.037 3.021 2.275.781 1.128-3.282.719.247-1.406 4.093ZM252.656 163.693l-6.96-1.296.438-2.352c.101-.543.277-.972.528-1.287a1.81 1.81 0 0 1 .902-.633 2.367 2.367 0 0 1 1.144-.047c.411.076.759.228 1.044.454.286.227.488.531.604.911.115.38.122.84.021 1.379l-.354 1.903-.761-.142.349-1.876c.069-.371.071-.681.004-.927a1.047 1.047 0 0 0-.37-.583 1.583 1.583 0 0 0-.691-.29 1.647 1.647 0 0 0-.76.02 1.085 1.085 0 0 0-.575.41c-.158.207-.273.499-.343.875l-.276 1.482 6.212 1.156-.156.843Zm-2.517-3.858 3.446-1.13-.183.978-3.44 1.104.177-.952ZM252.278 131.122l.76-.039.159 3.093-.759.039-.16-3.093ZM246.305 103.489l.25.82a1.777 1.777 0 0 0-.861 1.017 1.942 1.942 0 0 0-.105.65c.001.226.036.452.105.677.125.41.342.749.65 1.019.308.268.694.438 1.157.511.463.071.987.017 1.573-.161.587-.179 1.052-.427 1.396-.744.344-.319.569-.676.675-1.069a2.157 2.157 0 0 0-.029-1.209 2.333 2.333 0 0 0-.29-.62 1.976 1.976 0 0 0-.446-.482 1.824 1.824 0 0 0-1.286-.364l-.25-.82a2.868 2.868 0 0 1 1.032.055c.323.079.618.211.883.395.264.185.491.413.683.685.19.269.337.575.442.917.176.577.191 1.134.046 1.67-.145.535-.438 1.011-.88 1.428-.442.416-1.02.733-1.734.951-.714.218-1.37.277-1.969.178-.599-.1-1.108-.331-1.527-.695-.42-.364-.717-.834-.893-1.412a3.176 3.176 0 0 1-.145-1.007c.007-.332.07-.649.188-.95.115-.3.285-.574.509-.82a2.8 2.8 0 0 1 .826-.62ZM246.118 88.197l-6.356 3.117-1.054-2.148c-.243-.497-.358-.946-.345-1.348.012-.4.127-.75.346-1.047.218-.297.515-.537.889-.721.375-.184.745-.27 1.109-.259.365.011.708.134 1.029.37.318.236.598.6.84 1.093l.852 1.738-.695.341-.84-1.713c-.167-.34-.35-.588-.551-.746a1.05 1.05 0 0 0-.644-.247 1.576 1.576 0 0 0-.728.18 1.643 1.643 0 0 0-.598.47 1.089 1.089 0 0 0-.217.672c-.003.261.08.563.248.907l.664 1.353 5.673-2.782.378.77Zm-4.323-1.592 2.089-2.964.438.893-2.1 2.94-.427-.869ZM237.65 72.071l-5.833 4.012-2.421-3.52.627-.43 1.935 2.813 1.971-1.355-1.81-2.632.626-.431 1.81 2.631 1.983-1.363-1.967-2.86.626-.43 2.453 3.565ZM227.47 58.033l.615.656-6.941 2.949-.606-.646 3.383-6.74.615.656-2.897 5.62.037.04 5.794-2.535Zm-2.244 1.65-2.479-2.64.555-.521 2.479 2.641-.555.52ZM210.513 49.773l-.467.6-4.189-3.262.467-.6 1.756 1.368 3.883-4.986.676.527-3.882 4.986 1.756 1.367ZM192.603 33.97c.359-.656.788-1.157 1.286-1.504s1.024-.537 1.578-.57c.554-.032 1.095.097 1.625.387.529.29.929.678 1.2 1.163.27.484.393 1.03.367 1.636-.025.607-.217 1.237-.576 1.892-.359.655-.787 1.156-1.285 1.503-.498.347-1.024.537-1.578.57a2.966 2.966 0 0 1-1.625-.387 2.974 2.974 0 0 1-1.2-1.162 3.04 3.04 0 0 1-.368-1.637c.025-.607.217-1.237.576-1.892Zm.728.398c-.295.537-.454 1.04-.477 1.509-.025.467.063.88.264 1.236.199.357.487.638.862.844.376.206.769.298 1.178.275.407-.024.802-.171 1.185-.442.38-.273.718-.677 1.013-1.215.295-.537.454-1.04.479-1.507.023-.468-.065-.88-.264-1.237a2.158 2.158 0 0 0-.865-.845 2.142 2.142 0 0 0-1.174-.273c-.41.022-.805.17-1.185.442-.383.271-.721.675-1.016 1.213ZM181.392 24.454l-2.371 6.67-2.254-.801c-.521-.185-.917-.426-1.188-.723a1.807 1.807 0 0 1-.485-.99 2.39 2.39 0 0 1 .133-1.138 2.34 2.34 0 0 1 .613-.96c.269-.247.6-.398.994-.454.393-.053.848.012 1.365.196l1.824.648-.259.73-1.798-.64c-.356-.126-.662-.176-.916-.149a1.05 1.05 0 0 0-.633.274c-.168.158-.3.37-.395.637a1.64 1.64 0 0 0-.099.754c.029.235.133.446.314.633.18.188.45.347.811.475l1.42.505 2.117-5.954.807.287Zm-4.205 1.88-.576-3.58.938.334.55 3.57-.912-.324ZM149.165 19.719l.081-.756 3.08.327-.081.757-3.08-.328Z"/></svg>